<svg width="16" height="16" viewBox="0 0 16 16" fill="none" xmlns="http://www.w3.org/2000/svg">
<path d="M8 0C12.4183 0 16 3.58172 16 8C16 12.4183 12.4183 16 8 16C3.58172 16 0 12.4183 0 8C0 3.58172 3.58172 0 8 0ZM3.29004 13.3086H5.18945V7.29785H9.93945C10.464 7.29785 10.8896 6.84922 10.8896 6.2959C10.8894 5.74271 10.464 5.29399 9.93945 5.29395H3.29004V13.3086ZM3.29004 4.37695H9.97266C11.0253 4.37706 11.8818 5.26793 11.8818 6.3623C11.8818 7.4565 11.0253 8.34668 9.97266 8.34668H6.8916L11.1348 13.3086H13.6895L11.0156 10.1807C12.6157 9.70769 13.7908 8.17509 13.791 6.3623C13.791 4.17361 12.0781 2.39268 9.97266 2.39258H3.29004V4.37695Z" fill="url(#paint0_linear_4473_203)"/>
<defs>
<linearGradient id="paint0_linear_4473_203" x1="8" y1="0" x2="8" y2="16" gradientUnits="userSpaceOnUse">
<stop stop-color="#367CD6"/>
<stop offset="1" stop-color="#0C618B"/>
</linearGradient>
</defs>
</svg>
